<svg width="3821" height="1159" viewBox="0 0 3821 1159" fill="none" xmlns="http://www.w3.org/2000/svg">
<path d="M145.03 260.408H95.3181V346.023H4.1793V23.8154H151.474C180.627 23.8154 205.943 28.7252 227.423 38.5449C248.904 48.0577 265.475 61.8667 277.136 79.9717C288.796 97.7698 294.627 118.79 294.627 143.032C294.627 166.354 289.103 186.761 278.056 204.252C267.316 221.436 251.819 234.938 231.566 244.758L301.071 346.023H203.488L145.03 260.408ZM202.567 143.032C202.567 127.996 197.811 116.335 188.298 108.05C178.785 99.7645 164.67 95.6218 145.951 95.6218H95.3181V189.983H145.951C164.67 189.983 178.785 185.993 188.298 178.015C197.811 169.73 202.567 158.069 202.567 143.032ZM595.769 221.743C595.769 222.357 595.309 229.568 594.388 243.377H413.031C416.713 256.265 423.771 266.239 434.205 273.296C444.945 280.048 458.294 283.423 474.251 283.423C486.218 283.423 496.498 281.735 505.09 278.36C513.99 274.984 522.889 269.461 531.788 261.789L577.817 309.66C553.575 336.664 518.132 350.166 471.489 350.166C442.337 350.166 416.713 344.643 394.619 333.595C372.525 322.548 355.34 307.205 343.066 287.566C331.098 267.926 325.114 245.679 325.114 220.823C325.114 196.273 330.945 174.333 342.606 155C354.573 135.361 370.991 120.018 391.857 108.97C412.724 97.9233 436.199 92.3997 462.283 92.3997C487.139 92.3997 509.693 97.6164 529.947 108.05C550.2 118.176 566.157 133.059 577.817 152.699C589.785 172.031 595.769 195.046 595.769 221.743ZM462.743 154.54C449.241 154.54 437.887 158.376 428.681 166.047C419.782 173.719 414.105 184.152 411.65 197.347H513.836C511.381 184.152 505.551 173.719 496.345 166.047C487.446 158.376 476.245 154.54 462.743 154.54ZM735.678 92.3997C777.105 92.3997 808.712 101.913 830.499 120.938C852.286 139.657 863.18 168.502 863.18 207.474V346.023H781.707V313.803C769.126 338.045 744.577 350.166 708.06 350.166C688.727 350.166 672.003 346.791 657.888 340.04C643.772 333.289 633.032 324.236 625.667 312.882C618.609 301.221 615.08 288.026 615.08 273.296C615.08 249.668 624.132 231.409 642.237 218.521C660.342 205.326 688.267 198.728 726.012 198.728H775.724C774.189 172.338 756.545 159.143 722.789 159.143C710.822 159.143 698.701 161.137 686.426 165.127C674.151 168.809 663.718 174.026 655.126 180.777L625.667 121.398C639.476 112.192 656.2 105.135 675.839 100.225C695.785 95.0081 715.732 92.3997 735.678 92.3997ZM732.456 294.93C742.582 294.93 751.481 292.476 759.153 287.566C766.825 282.656 772.348 275.445 775.724 265.932V244.298H737.979C712.509 244.298 699.775 252.737 699.775 269.614C699.775 277.286 702.69 283.423 708.52 288.026C714.351 292.629 722.329 294.93 732.456 294.93ZM1187.11 4.48293V346.023H1103.8V321.167C1087.53 340.5 1063.14 350.166 1030.61 350.166C1007.9 350.166 987.188 344.949 968.47 334.516C949.751 323.776 934.868 308.586 923.821 288.947C913.08 269.307 907.71 246.599 907.71 220.823C907.71 195.046 913.08 172.491 923.821 153.159C934.868 133.52 949.751 118.483 968.47 108.05C987.188 97.6164 1007.9 92.3997 1030.61 92.3997C1060.38 92.3997 1083.39 100.992 1099.65 118.176V4.48293H1187.11ZM1049.02 280.661C1064.06 280.661 1076.49 275.445 1086.31 265.011C1096.13 254.271 1101.04 239.541 1101.04 220.823C1101.04 202.411 1096.13 187.988 1086.31 177.555C1076.79 167.121 1064.36 161.905 1049.02 161.905C1033.68 161.905 1021.1 167.121 1011.28 177.555C1001.46 187.988 996.548 202.411 996.548 220.823C996.548 239.541 1001.46 254.271 1011.28 265.011C1021.1 275.445 1033.68 280.661 1049.02 280.661ZM1506.21 96.5424L1398.5 356.15C1385.92 386.836 1370.57 408.317 1352.47 420.592C1334.36 433.173 1312.27 439.464 1286.19 439.464C1272.99 439.464 1259.64 437.316 1246.14 433.02C1232.95 429.03 1222.2 423.66 1213.92 416.909L1244.3 355.69C1249.21 360.293 1255.04 363.822 1261.79 366.277C1268.85 369.038 1275.91 370.419 1282.96 370.419C1291.25 370.419 1298 368.731 1303.22 365.356C1308.74 361.98 1313.34 356.61 1317.03 349.246L1210.24 96.5424H1299.99L1361.21 248.901L1422.89 96.5424H1506.21ZM1758.05 105.748H1817.43V171.111H1760.35V346.023H1672.9V171.111H1636.53V105.748H1672.9V99.3042C1672.9 68.9245 1681.95 44.8357 1700.05 27.0375C1718.47 9.23934 1744.09 0.340257 1776.92 0.340257C1787.97 0.340257 1798.71 1.41429 1809.14 3.56235C1819.58 5.71039 1828.17 8.93247 1834.92 13.2286L1813.29 74.9084C1804.7 69.9986 1795.95 67.5437 1787.05 67.5437C1777.84 67.5437 1770.63 70.3054 1765.42 75.829C1760.51 81.3526 1758.05 89.4845 1758.05 100.225V105.748ZM1972.27 350.166C1945.57 350.166 1921.48 344.643 1900 333.595C1878.52 322.548 1861.64 307.205 1849.37 287.566C1837.4 267.926 1831.42 245.679 1831.42 220.823C1831.42 196.273 1837.4 174.179 1849.37 154.54C1861.64 134.9 1878.37 119.711 1899.54 108.97C1921.02 97.9233 1945.27 92.3997 1972.27 92.3997C1999.27 92.3997 2023.52 97.9233 2045 108.97C2066.48 119.711 2083.2 134.9 2095.17 154.54C2107.14 173.872 2113.12 195.967 2113.12 220.823C2113.12 245.679 2107.14 267.926 2095.17 287.566C2083.2 307.205 2066.48 322.548 2045 333.595C2023.52 344.643 1999.27 350.166 1972.27 350.166ZM1972.27 280.661C1987.61 280.661 2000.19 275.445 2010.01 265.011C2019.83 254.271 2024.74 239.541 2024.74 220.823C2024.74 202.411 2019.83 187.988 2010.01 177.555C2000.19 167.121 1987.61 161.905 1972.27 161.905C1956.93 161.905 1944.34 167.121 1934.53 177.555C1924.71 187.988 1919.8 202.411 1919.8 220.823C1919.8 239.541 1924.71 254.271 1934.53 265.011C1944.34 275.445 1956.93 280.661 1972.27 280.661ZM2236.95 126.462C2245.85 115.108 2257.35 106.669 2271.47 101.145C2285.89 95.3149 2302.31 92.3997 2320.72 92.3997V171.111C2312.74 170.19 2306.15 169.73 2300.93 169.73C2282.21 169.73 2267.48 174.793 2256.74 184.919C2246.31 195.046 2241.09 210.543 2241.09 231.409V346.023H2153.63V96.5424H2236.95V126.462ZM2816.63 92.3997C2847.32 92.3997 2871.72 101.606 2889.82 120.018C2908.23 138.429 2917.44 166.201 2917.44 203.331V346.023H2829.98V217.601C2829.98 200.109 2826.61 187.221 2819.86 178.936C2813.41 170.65 2804.21 166.508 2792.24 166.508C2779.04 166.508 2768.46 171.111 2760.48 180.316C2752.5 189.522 2748.51 203.485 2748.51 222.203V346.023H2661.05V217.601C2661.05 183.539 2648.47 166.508 2623.31 166.508C2609.81 166.508 2599.07 171.111 2591.09 180.316C2583.11 189.522 2579.12 203.485 2579.12 222.203V346.023H2491.66V96.5424H2574.98V122.779C2584.18 112.653 2595.08 105.135 2607.66 100.225C2620.55 95.0081 2634.51 92.3997 2649.55 92.3997C2667.04 92.3997 2682.69 95.6218 2696.5 102.066C2710.31 108.51 2721.51 118.33 2730.1 131.525C2739.92 118.943 2752.35 109.277 2767.38 102.526C2782.42 95.7752 2798.84 92.3997 2816.63 92.3997ZM3078.97 92.3997C3120.39 92.3997 3152 101.913 3173.79 120.938C3195.58 139.657 3206.47 168.502 3206.47 207.474V346.023H3125V313.803C3112.42 338.045 3087.87 350.166 3051.35 350.166C3032.02 350.166 3015.29 346.791 3001.18 340.04C2987.06 333.289 2976.32 324.236 2968.96 312.882C2961.9 301.221 2958.37 288.026 2958.37 273.296C2958.37 249.668 2967.42 231.409 2985.53 218.521C3003.63 205.326 3031.56 198.728 3069.3 198.728H3119.01C3117.48 172.338 3099.83 159.143 3066.08 159.143C3054.11 159.143 3041.99 161.137 3029.72 165.127C3017.44 168.809 3007.01 174.026 2998.42 180.777L2968.96 121.398C2982.77 112.192 2999.49 105.135 3019.13 100.225C3039.08 95.0081 3059.02 92.3997 3078.97 92.3997ZM3075.75 294.93C3085.87 294.93 3094.77 292.476 3102.44 287.566C3110.11 282.656 3115.64 275.445 3119.01 265.932V244.298H3081.27C3055.8 244.298 3043.06 252.737 3043.06 269.614C3043.06 277.286 3045.98 283.423 3051.81 288.026C3057.64 292.629 3065.62 294.93 3075.75 294.93ZM3374.91 258.567L3349.13 284.804V346.023H3261.67V4.48293H3349.13V183.539L3438.43 96.5424H3541.99L3438.43 203.331L3550.74 346.023H3444.87L3374.91 258.567ZM3821 221.743C3821 222.357 3820.54 229.568 3819.61 243.377H3638.26C3641.94 256.265 3649 266.239 3659.43 273.296C3670.17 280.048 3683.52 283.423 3699.48 283.423C3711.44 283.423 3721.72 281.735 3730.32 278.36C3739.22 274.984 3748.12 269.461 3757.01 261.789L3803.04 309.66C3778.8 336.664 3743.36 350.166 3696.72 350.166C3667.56 350.166 3641.94 344.643 3619.85 333.595C3597.75 322.548 3580.57 307.205 3568.29 287.566C3556.32 267.926 3550.34 245.679 3550.34 220.823C3550.34 196.273 3556.17 174.333 3567.83 155C3579.8 135.361 3596.22 120.018 3617.08 108.97C3637.95 97.9233 3661.43 92.3997 3687.51 92.3997C3712.37 92.3997 3734.92 97.6164 3755.17 108.05C3775.43 118.176 3791.38 133.059 3803.04 152.699C3815.01 172.031 3821 195.046 3821 221.743ZM3687.97 154.54C3674.47 154.54 3663.11 158.376 3653.91 166.047C3645.01 173.719 3639.33 184.152 3636.88 197.347H3739.06C3736.61 184.152 3730.78 173.719 3721.57 166.047C3712.67 158.376 3701.47 154.54 3687.97 154.54ZM0.0366243 723.483H87.4931V1065.02H0.0366243V723.483ZM399.334 940.743C399.334 941.357 398.873 948.568 397.953 962.377H216.596C220.278 975.265 227.336 985.239 237.769 992.296C248.51 999.048 261.858 1002.42 277.815 1002.42C289.783 1002.42 300.063 1000.74 308.655 997.36C317.554 993.984 326.453 988.461 335.352 980.789L381.382 1028.66C357.14 1055.66 321.697 1069.17 275.053 1069.17C245.901 1069.17 220.278 1063.64 198.184 1052.6C176.09 1041.55 158.905 1026.21 146.63 1006.57C134.663 986.926 128.679 964.679 128.679 939.823C128.679 915.273 134.509 893.333 146.17 874C158.138 854.361 174.555 839.018 195.422 827.97C216.289 816.923 239.764 811.4 265.847 811.4C290.703 811.4 313.258 816.616 333.511 827.05C353.764 837.176 369.721 852.059 381.382 871.699C393.35 891.031 399.334 914.046 399.334 940.743ZM266.308 873.54C252.806 873.54 241.452 877.376 232.246 885.047C223.347 892.719 217.67 903.152 215.215 916.347H317.401C314.946 903.152 309.115 892.719 299.909 885.047C291.01 877.376 279.81 873.54 266.308 873.54ZM539.242 811.4C580.669 811.4 612.276 820.913 634.064 839.938C655.851 858.657 666.745 887.502 666.745 926.474V1065.02H585.272V1032.8C572.691 1057.04 548.141 1069.17 511.625 1069.17C492.292 1069.17 475.568 1065.79 461.452 1059.04C447.336 1052.29 436.596 1043.24 429.231 1031.88C422.173 1020.22 418.645 1007.03 418.645 992.296C418.645 968.668 427.697 950.409 445.802 937.521C463.907 924.326 491.832 917.728 529.576 917.728H579.288C577.754 891.338 560.109 878.143 526.354 878.143C514.386 878.143 502.265 880.137 489.991 884.127C477.716 887.809 467.283 893.026 458.69 899.777L429.231 840.398C443.04 831.192 459.764 824.135 479.404 819.225C499.35 814.008 519.296 811.4 539.242 811.4ZM536.02 1013.93C546.147 1013.93 555.046 1011.48 562.718 1006.57C570.389 1001.66 575.913 994.445 579.288 984.932V963.298H541.544C516.074 963.298 503.339 971.737 503.339 988.614C503.339 996.286 506.254 1002.42 512.085 1007.03C517.915 1011.63 525.894 1013.93 536.02 1013.93ZM805.262 845.462C814.161 834.108 825.668 825.669 839.784 820.145C854.207 814.315 870.624 811.4 889.036 811.4V890.111C881.057 889.19 874.46 888.73 869.243 888.73C850.524 888.73 835.795 893.793 825.055 903.919C814.621 914.046 809.404 929.543 809.404 950.409V1065.02H721.948V815.542H805.262V845.462ZM1087.61 811.4C1118.6 811.4 1143.46 820.606 1162.18 839.018C1181.2 857.429 1190.72 885.201 1190.72 922.331V1065.02H1103.26V936.601C1103.26 902.539 1089.61 885.508 1062.29 885.508C1047.26 885.508 1035.14 890.417 1025.93 900.237C1017.03 910.057 1012.58 924.786 1012.58 944.426V1065.02H925.126V815.542H1008.44V842.7C1018.26 832.573 1029.92 824.902 1043.42 819.685C1056.92 814.161 1071.65 811.4 1087.61 811.4ZM1245.63 815.542H1333.08V1065.02H1245.63V815.542ZM1289.35 787.925C1273.4 787.925 1260.51 783.475 1250.69 774.576C1240.87 765.677 1235.96 754.63 1235.96 741.435C1235.96 728.239 1240.87 717.192 1250.69 708.293C1260.51 699.394 1273.4 694.945 1289.35 694.945C1305.31 694.945 1318.2 699.241 1328.02 707.833C1337.84 716.118 1342.75 726.858 1342.75 740.054C1342.75 753.863 1337.84 765.37 1328.02 774.576C1318.2 783.475 1305.31 787.925 1289.35 787.925ZM1552.4 811.4C1583.4 811.4 1608.25 820.606 1626.97 839.018C1646 857.429 1655.51 885.201 1655.51 922.331V1065.02H1568.05V936.601C1568.05 902.539 1554.4 885.508 1527.09 885.508C1512.05 885.508 1499.93 890.417 1490.72 900.237C1481.82 910.057 1477.37 924.786 1477.37 944.426V1065.02H1389.92V815.542H1473.23V842.7C1483.05 832.573 1494.71 824.902 1508.21 819.685C1521.72 814.161 1536.45 811.4 1552.4 811.4ZM1982.37 815.542V1019.45C1982.37 1065.79 1969.79 1100.47 1944.62 1123.48C1919.46 1146.8 1883.25 1158.46 1835.99 1158.46C1811.44 1158.46 1788.43 1155.7 1766.95 1150.18C1745.47 1144.65 1727.21 1136.52 1712.17 1125.78L1743.93 1064.56C1754.06 1072.85 1766.79 1079.29 1782.14 1083.9C1797.79 1088.81 1813.13 1091.26 1828.17 1091.26C1851.18 1091.26 1868.06 1086.2 1878.8 1076.07C1889.54 1065.94 1894.91 1050.91 1894.91 1030.96V1022.68C1878.03 1042.32 1853.33 1052.14 1820.8 1052.14C1798.71 1052.14 1778.3 1047.23 1759.58 1037.41C1740.86 1027.28 1725.98 1013.16 1714.93 995.058C1703.89 976.646 1698.36 955.473 1698.36 931.537C1698.36 907.909 1703.89 887.042 1714.93 868.937C1725.98 850.525 1740.86 836.409 1759.58 826.59C1778.3 816.463 1798.71 811.4 1820.8 811.4C1856.4 811.4 1882.48 822.907 1899.05 845.922V815.542H1982.37ZM1841.52 982.63C1857.17 982.63 1870.05 977.874 1880.18 968.361C1890.61 958.848 1895.83 946.574 1895.83 931.537C1895.83 916.501 1890.77 904.38 1880.64 895.174C1870.52 885.661 1857.47 880.905 1841.52 880.905C1825.56 880.905 1812.36 885.661 1801.93 895.174C1791.8 904.38 1786.74 916.501 1786.74 931.537C1786.74 946.574 1791.96 958.848 1802.39 968.361C1812.82 977.874 1825.87 982.63 1841.52 982.63ZM2267.79 824.748H2327.17V890.111H2270.1V1065.02H2182.64V890.111H2146.28V824.748H2182.64V818.304C2182.64 787.925 2191.69 763.836 2209.8 746.038C2228.21 728.239 2253.83 719.34 2286.67 719.34C2297.71 719.34 2308.45 720.414 2318.89 722.562C2329.32 724.71 2337.91 727.932 2344.66 732.229L2323.03 793.908C2314.44 788.999 2305.69 786.544 2296.79 786.544C2287.59 786.544 2280.38 789.305 2275.16 794.829C2270.25 800.353 2267.79 808.484 2267.79 819.225V824.748ZM2621.88 815.542V1065.02H2538.56V1038.33C2529.36 1048.45 2518.31 1056.12 2505.42 1061.34C2492.53 1066.56 2478.88 1069.17 2464.46 1069.17C2432.24 1069.17 2406.46 1059.65 2387.13 1040.63C2368.1 1021.6 2358.59 993.064 2358.59 955.012V815.542H2446.04V940.743C2446.04 959.462 2449.57 973.117 2456.63 981.71C2463.69 990.302 2473.97 994.598 2487.47 994.598C2501.28 994.598 2512.48 989.842 2521.07 980.329C2529.97 970.509 2534.42 955.626 2534.42 935.68V815.542H2621.88ZM2840.7 811.4C2871.69 811.4 2896.55 820.606 2915.26 839.018C2934.29 857.429 2943.8 885.201 2943.8 922.331V1065.02H2856.35V936.601C2856.35 902.539 2842.69 885.508 2815.38 885.508C2800.34 885.508 2788.22 890.417 2779.02 900.237C2770.12 910.057 2765.67 924.786 2765.67 944.426V1065.02H2678.21V815.542H2761.52V842.7C2771.34 832.573 2783.01 824.902 2796.51 819.685C2810.01 814.161 2824.74 811.4 2840.7 811.4ZM2988.12 742.815H3092.15L3074.66 947.648H3005.15L2988.12 742.815ZM3040.14 1069.17C3024.79 1069.17 3012.21 1064.56 3002.39 1055.36C2992.57 1045.84 2987.66 1034.34 2987.66 1020.83C2987.66 1007.03 2992.57 995.672 3002.39 986.773C3012.21 977.874 3024.79 973.424 3040.14 973.424C3055.48 973.424 3067.91 977.874 3077.42 986.773C3087.24 995.672 3092.15 1007.03 3092.15 1020.83C3092.15 1034.34 3087.24 1045.84 3077.42 1055.36C3067.6 1064.56 3055.17 1069.17 3040.14 1069.17Z" fill="#2F281E"/>
</svg>
